<svg xmlns="http://www.w3.org/2000/svg" xmlns:xlink="http://www.w3.org/1999/xlink" width="30" height="30" viewBox="0 0 30 30">
  <defs>
    <clipPath id="clip-path">
      <rect id="Rectangle_50" data-name="Rectangle 50" width="30" height="30" fill="#4d4f53"/>
    </clipPath>
  </defs>
  <g id="fluent-mdl2_handwriting1" clip-path="url(#clip-path)">
    <path id="Path_56" data-name="Path 56" d="M22.878,5.625q.381,0,.908-.044T24.9,5.537q.586,0,1.157.044a2.965,2.965,0,0,1,1.04.264,1.749,1.749,0,0,1,.732.615,2.015,2.015,0,0,1,.293,1.04V20.625a1.817,1.817,0,0,1-.146.732,1.878,1.878,0,0,1-.4.586,2.043,2.043,0,0,1-.6.41,1.588,1.588,0,0,1-.732.146H1.872a1.817,1.817,0,0,1-.732-.146,1.879,1.879,0,0,1-.586-.4,2.043,2.043,0,0,1-.41-.6A1.588,1.588,0,0,1,0,20.625V7.5a1.817,1.817,0,0,1,.146-.732,1.879,1.879,0,0,1,.4-.586,2.043,2.043,0,0,1,.6-.41,1.588,1.588,0,0,1,.732-.146H14.616L19.377.864a2.883,2.883,0,0,1,.938-.63A3.1,3.1,0,0,1,21.442,0,2.746,2.746,0,0,1,22.57.234a3.013,3.013,0,0,1,1.553,1.553,2.781,2.781,0,0,1,.234,1.143,3,3,0,0,1-.1.835,2.615,2.615,0,0,1-.308.674,3.428,3.428,0,0,1-.469.586Zm-1.436-3.75a1,1,0,0,0-.732.308L8.7,14.194l-.5,1.978,1.978-.5,9.976-9.961q-.029-.029,0-.073a.047.047,0,0,1,.073-.015q.176-.176.557-.5t.762-.688a4.876,4.876,0,0,0,.659-.776A1.474,1.474,0,0,0,22.5,2.93a1.05,1.05,0,0,0-1.055-1.055Zm4.8,5.625H21l-9.858,9.873L5.622,18.75,7,13.228,12.741,7.5H1.872V20.625H26.247Z" transform="translate(0.003)" fill="#4d4f53"/>
  </g>
</svg>
