<svg xmlns="http://www.w3.org/2000/svg" width="169" height="170" viewBox="0 0 169 170">
    <g transform="translate(-.146 .355)">
        <ellipse data-name="Ellipse 10" cx="84.5" cy="85" rx="84.5" ry="85" transform="translate(.146 -.355)" style="fill:#ffa600"/>
        <path d="M92.9 27.217H74.607v-4.355a9.624 9.624 0 0 0-9.581-9.581h-20.9a9.624 9.624 0 0 0-9.581 9.581v4.355H16.253a6.1 6.1 0 0 0-6.1 6.1v55.737a6.1 6.1 0 0 0 6.1 6.1H92.9a6.1 6.1 0 0 0 6.1-6.1V33.313a6.1 6.1 0 0 0-6.1-6.1zm-53.131-4.355a4.355 4.355 0 0 1 4.355-4.355h20.9a4.355 4.355 0 0 1 4.355 4.355v4.355h-29.61zm-23.516 9.58H92.9a.871.871 0 0 1 .871.871v18.639a80.823 80.823 0 0 1-39.193 10.1 80.956 80.956 0 0 1-39.193-10.1V33.313a.871.871 0 0 1 .871-.871zM92.9 89.925H16.253a.871.871 0 0 1-.871-.871v-31.18a86.53 86.53 0 0 0 39.193 9.406 86.53 86.53 0 0 0 39.193-9.406v31.18a.871.871 0 0 1-.871.871zM46.736 50.732a2.613 2.613 0 0 1 2.613-2.613H59.8a2.613 2.613 0 0 1 0 5.226H49.349a2.613 2.613 0 0 1-2.613-2.613z" transform="translate(29.88 29.324)" style="fill:#f9fcfc"/>
    </g>
</svg>
