<svg width="89" height="34" viewBox="0 0 89 34" fill="none" xmlns="http://www.w3.org/2000/svg">
<g clip-path="url(#clip0_16_22)">
<path d="M14.32 0L0 32.99H6.83L9.19 27.32H21.34L18.79 21.5H11.61L16.98 8.62L27.13 32.99H33.95L19.64 0H14.32Z" fill="white" fill-opacity="0.9"/>
<path d="M82.74 4.71001V21.5L69.2 4.71001H63.75V32.99H70.01V15.55L84.08 32.99H89V4.71001H82.74Z" fill="white" fill-opacity="0.9"/>
<path d="M46.46 4C43.5273 3.99803 40.6599 4.86561 38.2202 6.49307C35.7806 8.12052 33.8782 10.4348 32.7537 13.1433C31.6291 15.8518 31.3328 18.8329 31.9023 21.7097C32.4718 24.5866 33.8814 27.23 35.953 29.3058C38.0246 31.3816 40.6652 32.7966 43.5409 33.3719C46.4166 33.9472 49.3983 33.6569 52.109 32.5378C54.8198 31.4187 57.1379 29.5211 58.7703 27.0847C60.4027 24.6483 61.276 21.7827 61.28 18.85C61.2826 14.9159 59.7231 11.1418 56.9441 8.35714C54.1651 5.57251 50.3941 4.0053 46.46 4ZM46.46 27.38C44.7649 27.384 43.1067 26.8845 41.6958 25.945C40.2848 25.0055 39.1846 23.6682 38.5345 22.1027C37.8844 20.5372 37.7138 18.8139 38.0443 17.1513C38.3747 15.4886 39.1914 13.9616 40.3908 12.7636C41.5901 11.5657 43.1181 10.7508 44.7811 10.4223C46.4441 10.0938 48.1672 10.2664 49.732 10.9183C51.2967 11.5702 52.6327 12.672 53.5706 14.0841C54.5084 15.4962 55.0059 17.1549 55 18.85C54.9974 21.116 54.0974 23.2887 52.497 24.8929C50.8966 26.497 48.726 27.4021 46.46 27.41V27.38Z" fill="white" fill-opacity="0.9"/>
</g>
<defs>
<clipPath id="clip0_16_22">
<rect width="89" height="33.68" fill="white"/>
</clipPath>
</defs>
</svg>
