<svg width="100" height="100" viewBox="0 0 100 100" fill="none" xmlns="http://www.w3.org/2000/svg">
<g clip-path="url(#clip0_63_60)">
<path d="M50 5.55554C41.2097 5.55554 32.6168 8.16216 25.308 13.0458C17.9991 17.9294 12.3026 24.8707 8.93869 32.9918C5.5748 41.113 4.69465 50.0493 6.40955 58.6707C8.12445 67.292 12.3574 75.2113 18.573 81.427C24.7887 87.6426 32.708 91.8756 41.3293 93.5905C49.9507 95.3054 58.887 94.4252 67.0082 91.0613C75.1293 87.6974 82.0706 82.0009 86.9542 74.692C91.8378 67.3831 94.4445 58.7903 94.4445 50C94.4445 38.2126 89.7619 26.908 81.427 18.573C73.092 10.2381 61.7874 5.55554 50 5.55554V5.55554ZM50 88.8889C42.3085 88.8889 34.7897 86.6081 28.3945 82.3349C21.9993 78.0618 17.0148 71.9881 14.0714 64.8821C11.128 57.7761 10.3578 49.9568 11.8584 42.4131C13.3589 34.8694 17.0627 27.9401 22.5014 22.5014C27.9401 17.0627 34.8695 13.3589 42.4132 11.8583C49.9569 10.3578 57.7761 11.1279 64.8821 14.0713C71.9882 17.0147 78.0618 21.9992 82.3349 28.3945C86.6081 34.7897 88.8889 42.3085 88.8889 50C88.8889 60.314 84.7917 70.2055 77.4986 77.4986C70.2055 84.7917 60.314 88.8889 50 88.8889Z" fill="white"/>
<path d="M50.8056 24.7778C47.7954 24.728 44.8113 25.3419 42.0652 26.5757C39.3191 27.8095 36.8784 29.633 34.9167 31.9167C34.6441 32.1692 34.425 32.4739 34.2723 32.8127C34.1197 33.1514 34.0365 33.5174 34.0278 33.8889C34.0276 34.2316 34.0963 34.5709 34.23 34.8865C34.3636 35.2021 34.5593 35.4876 34.8055 35.726C35.0517 35.9645 35.3433 36.1509 35.6631 36.2743C35.9828 36.3978 36.3241 36.4556 36.6667 36.4444C37.4005 36.4262 38.1022 36.1396 38.6389 35.6389C40.1235 33.8991 41.9674 32.5016 44.0437 31.5426C46.1201 30.5835 48.3795 30.0857 50.6667 30.0833C57.2222 30.0833 61.3055 34.3055 61.3055 39.5555V39.6944C61.3055 45.8333 56.4167 49.25 48.6944 49.8333C48.3818 49.8454 48.0751 49.9234 47.7947 50.0621C47.5142 50.2009 47.2662 50.3973 47.0669 50.6386C46.8676 50.8798 46.7215 51.1605 46.6382 51.4621C46.5549 51.7637 46.5362 52.0795 46.5833 52.3889V60.0278C46.6524 60.7153 46.9753 61.3525 47.4889 61.8147C48.0026 62.277 48.6701 62.5312 49.3611 62.5278H49.6667C50.3542 62.4587 50.9913 62.1358 51.4536 61.6221C51.9159 61.1085 52.1701 60.441 52.1667 59.75V54.0278C60.5 52.8611 67.25 48.4722 67.25 39.3611V39.2222C67.1667 30.8889 60.6667 24.7778 50.8056 24.7778Z" fill="white"/>
<path d="M50.8056 24.7778C47.7954 24.728 44.8113 25.3419 42.0652 26.5757C39.3191 27.8095 36.8784 29.633 34.9167 31.9167C34.6441 32.1692 34.425 32.4739 34.2723 32.8127C34.1197 33.1514 34.0365 33.5174 34.0278 33.8889C34.0276 34.2316 34.0963 34.5709 34.23 34.8865C34.3636 35.2021 34.5593 35.4876 34.8055 35.726C35.0517 35.9645 35.3433 36.1509 35.6631 36.2743C35.9828 36.3978 36.3241 36.4556 36.6667 36.4444C37.4005 36.4262 38.1022 36.1396 38.6389 35.6389C40.1235 33.8991 41.9674 32.5016 44.0437 31.5426C46.1201 30.5835 48.3795 30.0857 50.6667 30.0833C57.2222 30.0833 61.3055 34.3055 61.3055 39.5555V39.6944C61.3055 45.8333 56.4167 49.25 48.6944 49.8333C48.3818 49.8454 48.0751 49.9234 47.7947 50.0621C47.5142 50.2009 47.2662 50.3973 47.0669 50.6386C46.8676 50.8798 46.7215 51.1605 46.6382 51.4621C46.5549 51.7637 46.5362 52.0795 46.5833 52.3889V60.0278C46.6524 60.7153 46.9753 61.3525 47.4889 61.8147C48.0026 62.277 48.6701 62.5312 49.3611 62.5278H49.6667C50.3542 62.4587 50.9913 62.1358 51.4536 61.6221C51.9159 61.1085 52.1701 60.441 52.1667 59.75V54.0278C60.5 52.8611 67.25 48.4722 67.25 39.3611V39.2222C67.1667 30.8889 60.6667 24.7778 50.8056 24.7778Z" stroke="black"/>
<path d="M49.3889 76.25C51.3065 76.25 52.8611 74.6954 52.8611 72.7778C52.8611 70.8601 51.3065 69.3055 49.3889 69.3055C47.4712 69.3055 45.9167 70.8601 45.9167 72.7778C45.9167 74.6954 47.4712 76.25 49.3889 76.25Z" fill="white"/>
</g>
<defs>
<clipPath id="clip0_63_60">
<rect width="100" height="100" fill="white"/>
</clipPath>
</defs>
</svg>
