<svg xmlns="http://www.w3.org/2000/svg" width="27.264" height="27.264" viewBox="0 0 27.264 27.264">
  <g id="help" transform="translate(-6.368 -6.368)">
    <path id="Path_14" data-name="Path 14" d="M19.187,5.556a13.632,13.632,0,1,0,9.639,3.993,13.632,13.632,0,0,0-9.639-3.993Zm0,25.56a11.928,11.928,0,1,1,8.434-3.494A11.928,11.928,0,0,1,19.187,31.115Z" transform="translate(0.813 0.813)" fill="#4d4f53"/>
    <path id="Path_15" data-name="Path 15" d="M39.583,24.776a6.788,6.788,0,0,0-5.261,2.364.919.919,0,0,0-.294.653.846.846,0,0,0,.874.846.993.993,0,0,0,.653-.267,5.242,5.242,0,0,1,3.982-1.839,3.209,3.209,0,0,1,3.523,3.136v.046c0,2.033-1.619,3.164-4.176,3.357a.736.736,0,0,0-.7.846v2.529a.92.92,0,0,0,.92.828h.1a.92.92,0,0,0,.828-.92V34.461c2.759-.386,4.994-1.839,4.994-4.856v-.046c-.028-2.759-2.18-4.783-5.445-4.783Z" transform="translate(-19.377 -12.607)" fill="#4d4f53"/>
    <path id="Path_16" data-name="Path 16" d="M46.917,71.306a1,1,0,1,0-1-1A1,1,0,0,0,46.917,71.306Z" transform="translate(-26.605 -42.318)" fill="#4d4f53"/>
  </g>
</svg>
