<svg id="IF_Logo_ICON_without_Gradient" data-name="IF Logo ICON without Gradient" xmlns="http://www.w3.org/2000/svg" width="183.669" height="34.983" viewBox="0 0 183.669 34.983">
  <text id="ELEMENTS_17" data-name="ELEMENTS 17" transform="translate(47.669 24.491)" fill="#42403b" font-size="20" font-family="ArialMT, Arial"><tspan x="0" y="0">ELEMENTS 17</tspan></text>
  <text id="ELEMENTS_17-2" data-name="ELEMENTS 17" transform="translate(47.669 24.491)" fill="#fff" font-size="20" font-family="ArialMT, Arial"><tspan x="0" y="0">ELEMENTS 17</tspan></text>
  <rect id="Rectangle_2" data-name="Rectangle 2" width="7.456" height="16.241" transform="translate(17.186 13.782) rotate(90.101)" fill="#febc11"/>
  <rect id="Rectangle_3" data-name="Rectangle 3" width="7.456" height="16.241" transform="translate(39.055 13.782) rotate(90.101)" fill="#febc11"/>
  <path id="Path_1" data-name="Path 1" d="M17.179.079h-.937A16.242,16.242,0,0,0,0,16.321v2.5A16.242,16.242,0,0,0,16.242,35.061h.937V26.628H15.617a6.559,6.559,0,0,1-6.559-6.559v-5a6.559,6.559,0,0,1,6.559-6.559h1.562ZM22.8,35.061h.937A16.242,16.242,0,0,0,39.98,18.819v-2.5A16.242,16.242,0,0,0,23.738.079H22.8V8.512h1.562a6.559,6.559,0,0,1,6.559,6.559v5a6.559,6.559,0,0,1-6.559,6.559H22.8Z" transform="translate(0 -0.079)" fill="#febc11" fill-rule="evenodd"/>
</svg>
