<svg width="64" height="57" viewBox="0 0 64 57" fill="none" xmlns="http://www.w3.org/2000/svg">
<rect x="27.512" y="22.1403" width="11.9348" height="25.9982" transform="rotate(90.1009 27.512 22.1403)" fill="#FCB613"/>
<rect x="62.5188" y="22.1403" width="11.9348" height="25.9982" transform="rotate(90.1009 62.5188 22.1403)" fill="#F5B943"/>
<path fill-rule="evenodd" clip-rule="evenodd" d="M27.5 0.0787048H26C11.6406 0.0787048 0 11.7193 0 26.0787V28.0788V30.0787C0 44.4381 11.6406 56.0787 26 56.0787H27.5V42.5787H25C19.201 42.5787 14.5 37.8777 14.5 32.0787V24.0787C14.5 18.2797 19.201 13.5787 25 13.5787H27.5V0.0787048ZM36.5 56.0787H38C52.3594 56.0787 64 44.4381 64 30.0787V26.0787C64 11.7193 52.3594 0.0787048 38 0.0787048H36.5V13.5787H39C44.799 13.5787 49.5 18.2797 49.5 24.0787V32.0787C49.5 37.8777 44.799 42.5787 39 42.5787H36.5V56.0787Z" fill="url(#paint0_angular_47_8)"/>
<path fill-rule="evenodd" clip-rule="evenodd" d="M27.5 0.0787048H26C11.6406 0.0787048 0 11.7193 0 26.0787V28.0788V30.0787C0 44.4381 11.6406 56.0787 26 56.0787H27.5V42.5787H25C19.201 42.5787 14.5 37.8777 14.5 32.0787V24.0787C14.5 18.2797 19.201 13.5787 25 13.5787H27.5V0.0787048ZM36.5 56.0787H38C52.3594 56.0787 64 44.4381 64 30.0787V26.0787C64 11.7193 52.3594 0.0787048 38 0.0787048H36.5V13.5787H39C44.799 13.5787 49.5 18.2797 49.5 24.0787V32.0787C49.5 37.8777 44.799 42.5787 39 42.5787H36.5V56.0787Z" fill="url(#paint1_angular_47_8)"/>
<defs>
<radialGradient id="paint0_angular_47_8" cx="0" cy="0" r="1" gradientUnits="userSpaceOnUse" gradientTransform="translate(30.9997 28.0788) rotate(167.969) scale(31.1849 30.3432)">
<stop offset="0.356767" stop-color="#F3B855"/>
<stop offset="0.502813" stop-color="#F6B944"/>
<stop offset="0.614256" stop-color="#F6B941"/>
<stop offset="0.913152" stop-color="#FEBC11"/>
</radialGradient>
<radialGradient id="paint1_angular_47_8" cx="0" cy="0" r="1" gradientUnits="userSpaceOnUse" gradientTransform="translate(30.9997 28.0788) rotate(167.969) scale(31.1849 30.3432)">
<stop offset="0.356767" stop-color="#F9A619"/>
<stop offset="0.502813" stop-color="#F6B944"/>
<stop offset="0.614256" stop-color="#F6B941"/>
<stop offset="0.913152" stop-color="#FEBC11"/>
</radialGradient>
</defs>
</svg>
