<svg width="32" height="32" viewBox="0 0 32 32" fill="none" xmlns="http://www.w3.org/2000/svg">
<path d="M30.375 0.375H1.625C0.933594 0.375 0.375 0.933594 0.375 1.625V30.375C0.375 31.0664 0.933594 31.625 1.625 31.625H30.375C31.0664 31.625 31.625 31.0664 31.625 30.375V1.625C31.625 0.933594 31.0664 0.375 30.375 0.375ZM28.8125 28.8125H3.1875V3.1875H28.8125V28.8125ZM15.2188 11.625H22.4062C22.5781 11.625 22.7188 11.4844 22.7188 11.3125V9.4375C22.7188 9.26562 22.5781 9.125 22.4062 9.125H15.2188C15.0469 9.125 14.9062 9.26562 14.9062 9.4375V11.3125C14.9062 11.4844 15.0469 11.625 15.2188 11.625ZM15.2188 17.25H22.4062C22.5781 17.25 22.7188 17.1094 22.7188 16.9375V15.0625C22.7188 14.8906 22.5781 14.75 22.4062 14.75H15.2188C15.0469 14.75 14.9062 14.8906 14.9062 15.0625V16.9375C14.9062 17.1094 15.0469 17.25 15.2188 17.25ZM15.2188 22.875H22.4062C22.5781 22.875 22.7188 22.7344 22.7188 22.5625V20.6875C22.7188 20.5156 22.5781 20.375 22.4062 20.375H15.2188C15.0469 20.375 14.9062 20.5156 14.9062 20.6875V22.5625C14.9062 22.7344 15.0469 22.875 15.2188 22.875ZM9.28125 10.375C9.28125 10.7894 9.44587 11.1868 9.7389 11.4799C10.0319 11.7729 10.4293 11.9375 10.8438 11.9375C11.2582 11.9375 11.6556 11.7729 11.9486 11.4799C12.2416 11.1868 12.4062 10.7894 12.4062 10.375C12.4062 9.9606 12.2416 9.56317 11.9486 9.27015C11.6556 8.97712 11.2582 8.8125 10.8438 8.8125C10.4293 8.8125 10.0319 8.97712 9.7389 9.27015C9.44587 9.56317 9.28125 9.9606 9.28125 10.375ZM9.28125 16C9.28125 16.4144 9.44587 16.8118 9.7389 17.1049C10.0319 17.3979 10.4293 17.5625 10.8438 17.5625C11.2582 17.5625 11.6556 17.3979 11.9486 17.1049C12.2416 16.8118 12.4062 16.4144 12.4062 16C12.4062 15.5856 12.2416 15.1882 11.9486 14.8951C11.6556 14.6021 11.2582 14.4375 10.8438 14.4375C10.4293 14.4375 10.0319 14.6021 9.7389 14.8951C9.44587 15.1882 9.28125 15.5856 9.28125 16ZM9.28125 21.625C9.28125 22.0394 9.44587 22.4368 9.7389 22.7299C10.0319 23.0229 10.4293 23.1875 10.8438 23.1875C11.2582 23.1875 11.6556 23.0229 11.9486 22.7299C12.2416 22.4368 12.4062 22.0394 12.4062 21.625C12.4062 21.2106 12.2416 20.8132 11.9486 20.5201C11.6556 20.2271 11.2582 20.0625 10.8438 20.0625C10.4293 20.0625 10.0319 20.2271 9.7389 20.5201C9.44587 20.8132 9.28125 21.2106 9.28125 21.625Z" fill="#699BF7"/>
</svg>
