<svg xmlns="http://www.w3.org/2000/svg" width="169" height="170" viewBox="0 0 169 170">
    <g transform="translate(.029 .355)">
        <ellipse data-name="Ellipse 11" cx="84.5" cy="85" rx="84.5" ry="85" transform="translate(-.029 -.355)" style="fill:#ffa600"/>
        <path d="M80.7 7.306a7.328 7.328 0 0 1-7.3 7.307 6.21 6.21 0 0 1-1.863-.256L58.529 27.326a6.452 6.452 0 0 1 .256 1.9 7.306 7.306 0 0 1-14.613 0 6.46 6.46 0 0 1 .256-1.9l-9.316-9.316a7.183 7.183 0 0 1-3.8 0L14.69 34.669a6.21 6.21 0 0 1 .256 1.863 7.306 7.306 0 1 1-7.306-7.306 6.206 6.206 0 0 1 1.863.256l16.658-16.623a6.453 6.453 0 0 1-.256-1.9 7.306 7.306 0 0 1 14.613 0 6.45 6.45 0 0 1-.256 1.9l9.316 9.316a7.184 7.184 0 0 1 3.8 0L66.346 9.17a6.213 6.213 0 0 1-.256-1.863 7.306 7.306 0 1 1 14.613 0zm0 0a7.328 7.328 0 0 1-7.3 7.307 6.21 6.21 0 0 1-1.863-.256L58.529 27.326a6.452 6.452 0 0 1 .256 1.9 7.306 7.306 0 0 1-14.613 0 6.46 6.46 0 0 1 .256-1.9l-9.316-9.316a7.183 7.183 0 0 1-3.8 0L14.69 34.669a6.21 6.21 0 0 1 .256 1.863 7.306 7.306 0 1 1-7.306-7.306 6.206 6.206 0 0 1 1.863.256l16.658-16.623a6.453 6.453 0 0 1-.256-1.9 7.306 7.306 0 0 1 14.613 0 6.45 6.45 0 0 1-.256 1.9l9.316 9.316a7.184 7.184 0 0 1 3.8 0L66.346 9.17a6.213 6.213 0 0 1-.256-1.863 7.306 7.306 0 1 1 14.613 0z" transform="translate(47.121 60.999)" style="fill:#f9fcfc"/>
    </g>
</svg>
