<svg width="32" height="32" viewBox="0 0 32 32" fill="none" xmlns="http://www.w3.org/2000/svg">
<path d="M28.8 11.7333H3.19998M28.8 11.7333C29.3658 11.7333 29.9084 11.5086 30.3085 11.1085C30.7086 10.7084 30.9333 10.1658 30.9333 9.60001V5.33335C30.9333 4.76755 30.7086 4.22493 30.3085 3.82485C29.9084 3.42477 29.3658 3.20001 28.8 3.20001H3.19998C2.63419 3.20001 2.09157 3.42477 1.69149 3.82485C1.29141 4.22493 1.06665 4.76755 1.06665 5.33335V9.60001C1.06665 10.1658 1.29141 10.7084 1.69149 11.1085C2.09157 11.5086 2.63419 11.7333 3.19998 11.7333M28.8 11.7333C29.3658 11.7333 29.9084 11.9581 30.3085 12.3582C30.7086 12.7583 30.9333 13.3009 30.9333 13.8667V18.1333C30.9333 18.6991 30.7086 19.2418 30.3085 19.6418C29.9084 20.0419 29.3658 20.2667 28.8 20.2667M3.19998 11.7333C2.63419 11.7333 2.09157 11.9581 1.69149 12.3582C1.29141 12.7583 1.06665 13.3009 1.06665 13.8667V18.1333C1.06665 18.6991 1.29141 19.2418 1.69149 19.6418C2.09157 20.0419 2.63419 20.2667 3.19998 20.2667M28.8 20.2667H3.19998M28.8 20.2667C29.3658 20.2667 29.9084 20.4914 30.3085 20.8915C30.7086 21.2916 30.9333 21.8342 30.9333 22.4V26.6667C30.9333 27.2325 30.7086 27.7751 30.3085 28.1752C29.9084 28.5753 29.3658 28.8 28.8 28.8H3.19998C2.63419 28.8 2.09157 28.5753 1.69149 28.1752C1.29141 27.7751 1.06665 27.2325 1.06665 26.6667V22.4C1.06665 21.8342 1.29141 21.2916 1.69149 20.8915C2.09157 20.4914 2.63419 20.2667 3.19998 20.2667M4.26665 7.46668H10.6667M4.26665 16H10.6667M4.26665 24.5333H10.6667" stroke="#699BF7"/>
</svg>
