<svg width="50" height="50" viewBox="0 0 50 50" fill="none" xmlns="http://www.w3.org/2000/svg">
<path d="M32.4093 25.8656V24.1375C32.4093 21.5531 31.0906 20.2812 29.325 20.2812C27.5375 20.2812 26.2312 21.5531 26.2312 24.1375V25.8656C26.2312 28.4594 27.5375 29.7313 29.325 29.7313C31.0906 29.7313 32.4093 28.4563 32.4093 25.8656ZM40.4906 25.1156C41.9375 25.1156 42.7875 24.2656 42.7875 22.7906C42.7875 21.3156 41.9375 20.475 40.4906 20.475H38.0718V25.1156H40.4906Z" fill="#F24E1E"/>
<path d="M15.2906 0C14.877 8.78718e-05 14.4803 0.16416 14.1875 0.45625L0.45625 14.1875C0.16416 14.4803 8.78718e-05 14.877 0 15.2906L0 34.7094C8.78718e-05 35.123 0.16416 35.5197 0.45625 35.8125L14.1875 49.5438C14.4803 49.8358 14.877 49.9999 15.2906 50H34.7094C35.123 49.9999 35.5197 49.8358 35.8125 49.5438L49.5438 35.8125C49.8358 35.5197 49.9999 35.123 50 34.7094V15.2906C49.9999 14.877 49.8358 14.4803 49.5438 14.1875L35.8125 0.45625C35.5197 0.16416 35.123 8.78718e-05 34.7094 0L15.2906 0ZM9.875 31.5C6.96563 31.5 5.35313 29.9594 5.20625 27.9625H7.24688C7.45 29.0437 8.48438 29.7844 10.0313 29.7844C11.6688 29.7844 12.625 29.0156 12.625 27.8469C12.625 26.9 11.9906 26.3875 10.6344 26.0594L8.58437 25.5469C6.67812 25.0875 5.52813 23.9531 5.52813 22.1781C5.52813 19.9719 7.39375 18.4781 10.0406 18.4781C12.7063 18.4781 14.3719 19.9625 14.5281 21.875H12.5125C12.3125 20.875 11.4125 20.1813 10.0219 20.1813C8.54688 20.1813 7.61563 20.95 7.61563 22.0563C7.61563 22.8719 8.22813 23.4219 9.34375 23.6875L11.3875 24.1906C13.4906 24.7031 14.7 25.7125 14.7 27.6594C14.7 29.9594 12.9063 31.5 9.875 31.5ZM20.5844 20.5313V31.25H18.5062V20.5313H14.8531V18.75H24.2469V20.525H20.5844V20.5313ZM34.5156 24.1563V25.8563C34.5156 29.3906 32.5281 31.4969 29.325 31.4969C26.1187 31.4969 24.125 29.3906 24.125 25.8563V24.1563C24.125 20.6062 26.1187 18.5094 29.325 18.5094C32.5281 18.5094 34.5125 20.6156 34.5125 24.1563H34.5156ZM36 18.75H40.7969C43.3594 18.75 44.9094 20.4687 44.9094 22.7875C44.9094 25.1219 43.3438 26.8156 40.7813 26.8156H38.0781V31.25H36V18.75Z" fill="#F24E1E"/>
</svg>
