<svg xmlns="http://www.w3.org/2000/svg" width="27.6" height="27.6" viewBox="0 0 27.6 27.6">
  <g id="Layer_x0020_1" transform="translate(-3 -6)">
    <g id="_152222920" transform="translate(11.252 11.491)">
      <path id="_152222248" d="M18.172,16.723c-2.159,1.247,1.135,7.423,3.5,6.059l2.191,3.795c-1,.576-1.841.938-3,.278-3.209-1.835-6.742-7.951-6.641-11.6.035-1.267.781-1.764,1.758-2.327l2.191,3.795Z" transform="translate(-14.221 -11.346)" fill="#4d4f53" fill-rule="evenodd"/>
      <path id="_150519168" d="M1.735,3.764a.279.279,0,0,1-.414-.132L.041,1A.4.4,0,0,1,.152.509L.825.048A.28.28,0,0,1,1.239.18L2.52,2.811a.4.4,0,0,1-.111.492l-.673.461Z" transform="matrix(0.995, -0.105, 0.105, 0.995, 2.198, 0.268)" fill="#4d4f53" fill-rule="evenodd"/>
      <path id="_226148072" d="M1.734,4.157a.268.268,0,0,1-.414-.145L.04,1.105A.472.472,0,0,1,.151.562L.824.053A.268.268,0,0,1,1.238.2L2.517,3.1a.472.472,0,0,1-.111.543l-.672.509Z" transform="translate(8.253 10.788) rotate(-8)" fill="#4d4f53" fill-rule="evenodd"/>
    </g>
    <path id="Path_109" data-name="Path 109" d="M13.8,0h0V0A13.791,13.791,0,0,1,27.6,13.8h0A13.791,13.791,0,0,1,13.8,27.6v0h0v0A13.791,13.791,0,0,1,0,13.8H0A13.791,13.791,0,0,1,13.8,0V0h0Zm0,1.646v0h0v0A12.163,12.163,0,0,0,1.646,13.8h0A12.163,12.163,0,0,0,13.8,25.954v0h0v0A12.163,12.163,0,0,0,25.954,13.8h0A12.163,12.163,0,0,0,13.8,1.646Z" transform="translate(3 6)" fill="#4d4f53"/>
  </g>
</svg>
