<svg xmlns="http://www.w3.org/2000/svg" width="167" height="168" viewBox="0 0 167 168">
    <g transform="translate(-.428 .355)">
        <ellipse data-name="Ellipse 11" cx="83.5" cy="84" rx="83.5" ry="84" transform="translate(.428 -.355)" style="fill:#ffa600"/>
        <path d="M79.265 11.127V89.02H12.5V11.127h22.255a10.673 10.673 0 0 1 .869-4.3 11.85 11.85 0 0 1 2.391-3.567A10.4 10.4 0 0 1 41.536.869 11.86 11.86 0 0 1 45.882 0a10.674 10.674 0 0 1 4.3.869A11.851 11.851 0 0 1 53.75 3.26a10.4 10.4 0 0 1 2.391 3.521 11.86 11.86 0 0 1 .869 4.347zm-50.074 5.564v5.564h33.383v-5.564H51.446v-5.564a5.392 5.392 0 0 0-.435-2.173 5.576 5.576 0 0 0-1.174-1.739A6.062 6.062 0 0 0 48.056 6a4.713 4.713 0 0 0-2.173-.435A5.391 5.391 0 0 0 43.709 6a5.576 5.576 0 0 0-1.739 1.174 6.063 6.063 0 0 0-1.217 1.782 4.712 4.712 0 0 0-.435 2.173v5.564zm44.51 0h-5.564v11.128H23.628V16.691h-5.564v66.765H73.7zM56.1 31.253a8.728 8.728 0 0 1 3.39.652 8.91 8.91 0 0 1 2.782 1.826 7.577 7.577 0 0 1 1.828 2.738 10.7 10.7 0 0 1 .7 3.39 8.716 8.716 0 0 1-.652 3.3 8.436 8.436 0 0 1-1.869 2.825L39.406 69.069l-15.561 2.955L27.1 56.768 49.968 33.73a7.913 7.913 0 0 1 2.826-1.83 10 10 0 0 1 3.306-.647zm2.217 10.823a3.214 3.214 0 0 0 .913-2.217 2.859 2.859 0 0 0-.869-2.173 3.306 3.306 0 0 0-2.26-.869 3.969 3.969 0 0 0-1.174.174 2.224 2.224 0 0 0-1 .652L32.234 59.506l-1.174 5.477 5.608-1.083z" transform="translate(38.098 34.105)" style="fill:#f9fcfc"/>
    </g>
</svg>
