<svg width="100" height="100" viewBox="0 0 100 100" fill="none" xmlns="http://www.w3.org/2000/svg">
<path d="M47.9167 58.3333C65.1667 58.3333 79.1667 64.875 79.1667 72.9167V83.3333H16.6667V72.9167C16.6667 64.875 30.6667 58.3333 47.9167 58.3333ZM75 72.9167C75 67.1667 62.875 62.5 47.9167 62.5C32.9584 62.5 20.8334 67.1667 20.8334 72.9167V79.1667H75V72.9167ZM47.9167 20.8333C51.7844 20.8333 55.4938 22.3698 58.2287 25.1047C60.9636 27.8396 62.5 31.5489 62.5 35.4167C62.5 39.2844 60.9636 42.9937 58.2287 45.7286C55.4938 48.4635 51.7844 50 47.9167 50C44.0489 50 40.3396 48.4635 37.6047 45.7286C34.8698 42.9937 33.3334 39.2844 33.3334 35.4167C33.3334 31.5489 34.8698 27.8396 37.6047 25.1047C40.3396 22.3698 44.0489 20.8333 47.9167 20.8333ZM47.9167 25C45.154 25 42.5045 26.0975 40.551 28.051C38.5975 30.0045 37.5 32.654 37.5 35.4167C37.5 38.1793 38.5975 40.8289 40.551 42.7824C42.5045 44.7359 45.154 45.8333 47.9167 45.8333C50.6794 45.8333 53.3289 44.7359 55.2824 42.7824C57.2359 40.8289 58.3334 38.1793 58.3334 35.4167C58.3334 32.654 57.2359 30.0045 55.2824 28.051C53.3289 26.0975 50.6794 25 47.9167 25Z" fill="white"/>
</svg>
