<svg width="100" height="100" viewBox="0 0 100 100" fill="none" xmlns="http://www.w3.org/2000/svg">
<g clip-path="url(#clip0_101_39)">
<path d="M76.2695 18.75C77.1159 18.75 78.125 18.7012 79.2969 18.6035C80.4688 18.5059 81.7057 18.457 83.0078 18.457C84.3099 18.457 85.5957 18.5059 86.8652 18.6035C88.1348 18.7012 89.2904 18.9941 90.332 19.4824C91.3737 19.9707 92.1875 20.6543 92.7734 21.5332C93.3594 22.4121 93.6849 23.5677 93.75 25V68.75C93.75 69.6289 93.5873 70.4427 93.2617 71.1914C92.9362 71.9401 92.4968 72.5912 91.9434 73.1445C91.39 73.6979 90.7227 74.1537 89.9414 74.5117C89.1602 74.8698 88.3464 75.0326 87.5 75H6.25001C5.3711 75 4.5573 74.8372 3.8086 74.5117C3.05991 74.1862 2.40886 73.7468 1.85548 73.1934C1.30209 72.64 0.846364 71.9727 0.488291 71.1914C0.130218 70.4102 -0.0325419 69.5964 1.0173e-05 68.75V25C1.0173e-05 24.1211 0.162771 23.3073 0.488291 22.5586C0.813812 21.8099 1.25327 21.1589 1.80665 20.6055C2.36004 20.0521 3.02735 19.5964 3.8086 19.2383C4.58985 18.8802 5.40366 18.7174 6.25001 18.75H48.7305L64.5996 2.88086C65.5111 1.9694 66.5527 1.26953 67.7246 0.78125C68.8965 0.292969 70.1498 0.0325521 71.4844 0C72.819 0 74.0723 0.260417 75.2442 0.78125C76.416 1.30208 77.4414 2.00195 78.3203 2.88086C79.1992 3.75977 79.8991 4.78516 80.4199 5.95703C80.9408 7.12891 81.2012 8.39844 81.2012 9.76563C81.2012 10.8398 81.0873 11.7676 80.8594 12.5488C80.6315 13.3301 80.2897 14.0788 79.834 14.7949C79.3783 15.5111 78.8574 16.1621 78.2715 16.748C77.6856 17.334 77.0182 18.0013 76.2695 18.75ZM71.4844 6.25C70.5404 6.25 69.7266 6.5918 69.043 7.27539L29.0039 47.3145L27.3438 53.9063L33.9356 52.2461L67.1875 19.043C67.1224 18.9779 67.1224 18.8965 67.1875 18.7988C67.2526 18.7012 67.334 18.6849 67.4317 18.75C67.8223 18.3594 68.4408 17.806 69.2871 17.0898C70.1335 16.3737 70.9798 15.6087 71.8262 14.7949C72.6725 13.9811 73.405 13.1185 74.0234 12.207C74.6419 11.2956 74.9675 10.4818 75 9.76563C75 8.78906 74.6582 7.95898 73.9746 7.27539C73.291 6.5918 72.4609 6.25 71.4844 6.25ZM87.5 25H70.0195L37.1582 57.9102L18.75 62.5L23.3399 44.0918L42.4805 25H6.25001V68.75H87.5V25Z" fill="white"/>
</g>
<defs>
<clipPath id="clip0_101_39">
<rect width="100" height="100" fill="white"/>
</clipPath>
</defs>
</svg>
