<svg xmlns="http://www.w3.org/2000/svg" width="194" height="194" viewBox="0 0 194 194">
  <g id="Account-icon" transform="translate(-863 -285)">
    <circle id="Ellipse_10" data-name="Ellipse 10" cx="97" cy="97" r="97" transform="translate(863 285)" fill="#f0ab00" opacity="0.64"/>
    <path id="ph_briefcase-light" d="M117.264,31.32H93.588V25.683a12.459,12.459,0,0,0-12.4-12.4H54.127a12.459,12.459,0,0,0-12.4,12.4V31.32H18.048a7.892,7.892,0,0,0-7.892,7.892v72.157a7.892,7.892,0,0,0,7.892,7.892h99.216a7.892,7.892,0,0,0,7.892-7.892V39.213a7.892,7.892,0,0,0-7.892-7.892ZM48.49,25.683a5.637,5.637,0,0,1,5.637-5.637H81.186a5.637,5.637,0,0,1,5.637,5.637V31.32H48.49Zm-30.441,12.4h99.216a1.127,1.127,0,0,1,1.127,1.127V63.34A104.625,104.625,0,0,1,67.656,76.418,104.8,104.8,0,0,1,16.921,63.34V39.213a1.127,1.127,0,0,1,1.127-1.127ZM117.264,112.5H18.048a1.127,1.127,0,0,1-1.127-1.127V71.007A112.013,112.013,0,0,0,67.656,83.183a112.013,112.013,0,0,0,50.735-12.177v40.363a1.127,1.127,0,0,1-1.127,1.127ZM57.509,61.762a3.382,3.382,0,0,1,3.382-3.382H74.421a3.382,3.382,0,0,1,0,6.765H60.892a3.382,3.382,0,0,1-3.382-3.382Z" transform="translate(892.626 315.735)" fill="#4d4f53"/>
  </g>
</svg>
