<svg xmlns="http://www.w3.org/2000/svg" width="651" height="522" viewBox="0 0 651 522">
  <g id="graph" transform="translate(0 0)">
    <rect id="Rectangle_55" data-name="Rectangle 55" width="651" height="522" transform="translate(0 0)" fill="none"/>
    <g id="Group_15" data-name="Group 15" transform="translate(87.497 458.861)">
      <path id="Path_60" data-name="Path 60" d="M80.2,422.4H543.4" transform="translate(-80.2 -422.4)" fill="none" stroke="gray" stroke-width="1" stroke-dasharray="2 4"/>
    </g>
    <g id="Group_17" data-name="Group 17" transform="translate(68.731 448.555)">
      <path id="Path_61" data-name="Path 61" d="M80.2,422.4h9.763m453.43,0h-9.752" transform="translate(-61.434 -412.095)" fill="none" stroke="#000" stroke-width="1"/>
      <g id="Group_16" data-name="Group 16">
        <text id="_0" data-name="0" transform="translate(8 14)" font-size="15" font-family="ArialMT, Arial"><tspan x="-8.342" y="0">0</tspan></text>
      </g>
    </g>
    <g id="Group_18" data-name="Group 18" transform="translate(87.497 370.886)">
      <path id="Path_62" data-name="Path 62" d="M80.2,341.3H543.4" transform="translate(-80.2 -341.3)" fill="none" stroke="gray" stroke-width="1" stroke-dasharray="2 4"/>
    </g>
    <g id="Group_20" data-name="Group 20" transform="translate(49.205 360.581)">
      <path id="Path_63" data-name="Path 63" d="M80.2,341.3h9.763m453.43,0h-9.752" transform="translate(-41.908 -330.995)" fill="none" stroke="#000" stroke-width="1"/>
      <g id="Group_19" data-name="Group 19">
        <text id="_500" data-name="500" transform="translate(25 14)" font-size="15" font-family="ArialMT, Arial"><tspan x="-25.027" y="0">500</tspan></text>
      </g>
    </g>
    <g id="Group_21" data-name="Group 21" transform="translate(87.497 282.804)">
      <path id="Path_64" data-name="Path 64" d="M80.2,260.1H543.4" transform="translate(-80.2 -260.1)" fill="none" stroke="gray" stroke-width="1" stroke-dasharray="2 4"/>
    </g>
    <g id="Group_23" data-name="Group 23" transform="translate(39.442 272.499)">
      <path id="Path_65" data-name="Path 65" d="M80.2,260.1h9.763m453.43,0h-9.752" transform="translate(-32.145 -249.795)" fill="none" stroke="#000" stroke-width="1"/>
      <g id="Group_22" data-name="Group 22">
        <text id="_1000" data-name="1000" transform="translate(33 14)" font-size="15" font-family="ArialMT, Arial"><tspan x="-33.369" y="0">1000</tspan></text>
      </g>
    </g>
    <g id="Group_24" data-name="Group 24" transform="translate(87.497 194.83)">
      <path id="Path_66" data-name="Path 66" d="M80.2,179H543.4" transform="translate(-80.2 -179)" fill="none" stroke="gray" stroke-width="1" stroke-dasharray="2 4"/>
    </g>
    <g id="Group_26" data-name="Group 26" transform="translate(39.442 184.524)">
      <path id="Path_67" data-name="Path 67" d="M80.2,179h9.763m453.43,0h-9.752" transform="translate(-32.145 -168.695)" fill="none" stroke="#000" stroke-width="1"/>
      <g id="Group_25" data-name="Group 25">
        <text id="_1500" data-name="1500" transform="translate(33 14)" font-size="15" font-family="ArialMT, Arial"><tspan x="-33.369" y="0">1500</tspan></text>
      </g>
    </g>
    <g id="Group_27" data-name="Group 27" transform="translate(87.497 106.747)">
      <path id="Path_68" data-name="Path 68" d="M80.2,97.8H543.4" transform="translate(-80.2 -97.8)" fill="none" stroke="gray" stroke-width="1" stroke-dasharray="2 4"/>
    </g>
    <g id="Group_29" data-name="Group 29" transform="translate(39.442 96.442)">
      <path id="Path_69" data-name="Path 69" d="M80.2,97.8h9.763m453.43,0h-9.752" transform="translate(-32.145 -87.495)" fill="none" stroke="#000" stroke-width="1"/>
      <g id="Group_28" data-name="Group 28">
        <text id="_2000" data-name="2000" transform="translate(33 14)" font-size="15" font-family="ArialMT, Arial"><tspan x="-33.369" y="0">2000</tspan></text>
      </g>
    </g>
    <g id="Group_30" data-name="Group 30" transform="translate(87.497 18.773)">
      <path id="Path_70" data-name="Path 70" d="M80.2,16.7H543.4" transform="translate(-80.2 -16.7)" fill="none" stroke="gray" stroke-width="1" stroke-dasharray="2 4"/>
    </g>
    <g id="Group_32" data-name="Group 32" transform="translate(39.442 8.468)">
      <path id="Path_71" data-name="Path 71" d="M80.2,16.7h9.763m453.43,0h-9.752" transform="translate(-32.145 -6.395)" fill="none" stroke="#000" stroke-width="1"/>
      <g id="Group_31" data-name="Group 31">
        <text id="_2500" data-name="2500" transform="translate(33 14)" font-size="15" font-family="ArialMT, Arial"><tspan x="-33.369" y="0">2500</tspan></text>
      </g>
    </g>
    <g id="Group_33" data-name="Group 33" transform="translate(87.497 18.773)">
      <path id="Path_72" data-name="Path 72" d="M80.2,456.788V16.7h.011" transform="translate(-80.2 -16.7)" fill="none" stroke="gray" stroke-width="1" stroke-dasharray="2 4"/>
    </g>
    <g id="Group_35" data-name="Group 35" transform="translate(83.158 18.773)">
      <path id="Path_73" data-name="Path 73" d="M80.2,456.788v-9.763M80.2,16.7v9.763h.011" transform="translate(-75.861 -16.7)" fill="none" stroke="#000" stroke-width="1"/>
      <g id="Group_34" data-name="Group 34" transform="translate(0 449.308)">
        <text id="_0-2" data-name="0" transform="translate(4 14)" font-size="16" font-family="ArialMT, Arial"><tspan x="-4.449" y="0">0</tspan></text>
      </g>
    </g>
    <g id="Group_36" data-name="Group 36" transform="translate(133.816 18.773)">
      <path id="Path_74" data-name="Path 74" d="M122.9,456.788V16.7h.011" transform="translate(-122.9 -16.7)" fill="none" stroke="gray" stroke-width="1" stroke-dasharray="2 4"/>
    </g>
    <g id="Group_38" data-name="Group 38" transform="translate(119.714 18.773)">
      <path id="Path_75" data-name="Path 75" d="M122.9,456.788v-9.763m0-430.325v9.763h.011" transform="translate(-108.798 -16.7)" fill="none" stroke="#000" stroke-width="1"/>
      <g id="Group_37" data-name="Group 37" transform="translate(0 449.308)">
        <text id="_200" data-name="200" transform="translate(13 14)" font-size="16" font-family="ArialMT, Arial"><tspan x="-13.348" y="0">200</tspan></text>
      </g>
    </g>
    <g id="Group_39" data-name="Group 39" transform="translate(180.136 18.773)">
      <path id="Path_76" data-name="Path 76" d="M165.6,456.788V16.7h.011" transform="translate(-165.6 -16.7)" fill="none" stroke="gray" stroke-width="1" stroke-dasharray="2 4"/>
    </g>
    <g id="Group_41" data-name="Group 41" transform="translate(166.034 18.773)">
      <path id="Path_77" data-name="Path 77" d="M165.6,456.788v-9.763m0-430.325v9.763h.011" transform="translate(-151.498 -16.7)" fill="none" stroke="#000" stroke-width="1"/>
      <g id="Group_40" data-name="Group 40" transform="translate(0 449.308)">
        <text id="_400" data-name="400" transform="translate(13 14)" font-size="16" font-family="ArialMT, Arial"><tspan x="-13.348" y="0">400</tspan></text>
      </g>
    </g>
    <g id="Group_42" data-name="Group 42" transform="translate(226.455 18.773)">
      <path id="Path_78" data-name="Path 78" d="M208.3,456.788V16.7h.011" transform="translate(-208.3 -16.7)" fill="none" stroke="gray" stroke-width="1" stroke-dasharray="2 4"/>
    </g>
    <g id="Group_44" data-name="Group 44" transform="translate(212.353 18.773)">
      <path id="Path_79" data-name="Path 79" d="M208.3,456.788v-9.763m0-430.325v9.763h.011" transform="translate(-194.198 -16.7)" fill="none" stroke="#000" stroke-width="1"/>
      <g id="Group_43" data-name="Group 43" transform="translate(0 449.308)">
        <text id="_600" data-name="600" transform="translate(13 14)" font-size="16" font-family="ArialMT, Arial"><tspan x="-13.348" y="0">600</tspan></text>
      </g>
    </g>
    <g id="Group_45" data-name="Group 45" transform="translate(272.774 18.773)">
      <path id="Path_80" data-name="Path 80" d="M251,456.788V16.7h.011" transform="translate(-251 -16.7)" fill="none" stroke="gray" stroke-width="1" stroke-dasharray="2 4"/>
    </g>
    <g id="Group_47" data-name="Group 47" transform="translate(258.672 18.773)">
      <path id="Path_81" data-name="Path 81" d="M251,456.788v-9.763M251,16.7v9.763h.011" transform="translate(-236.898 -16.7)" fill="none" stroke="#000" stroke-width="1"/>
      <g id="Group_46" data-name="Group 46" transform="translate(0 449.308)">
        <text id="_800" data-name="800" transform="translate(13 14)" font-size="16" font-family="ArialMT, Arial"><tspan x="-13.348" y="0">800</tspan></text>
      </g>
    </g>
    <g id="Group_48" data-name="Group 48" transform="translate(319.094 18.773)">
      <path id="Path_82" data-name="Path 82" d="M293.7,456.788V16.7h.011" transform="translate(-293.7 -16.7)" fill="none" stroke="gray" stroke-width="1" stroke-dasharray="2 4"/>
    </g>
    <g id="Group_50" data-name="Group 50" transform="translate(299.568 18.773)">
      <path id="Path_83" data-name="Path 83" d="M293.7,456.788v-9.763m0-430.325v9.763h.011" transform="translate(-274.174 -16.7)" fill="none" stroke="#000" stroke-width="1"/>
      <g id="Group_49" data-name="Group 49" transform="translate(0 449.308)">
        <text id="_1000-2" data-name="1000" transform="translate(17 14)" font-size="15" font-family="ArialMT, Arial"><tspan x="-16.685" y="0">1000</tspan></text>
      </g>
    </g>
    <g id="Group_51" data-name="Group 51" transform="translate(365.413 18.773)">
      <path id="Path_84" data-name="Path 84" d="M336.4,456.788V16.7h.011" transform="translate(-336.4 -16.7)" fill="none" stroke="gray" stroke-width="1" stroke-dasharray="2 4"/>
    </g>
    <g id="Group_53" data-name="Group 53" transform="translate(345.887 18.773)">
      <path id="Path_85" data-name="Path 85" d="M336.4,456.788v-9.763m0-430.325v9.763h.011" transform="translate(-316.874 -16.7)" fill="none" stroke="#000" stroke-width="1"/>
      <g id="Group_52" data-name="Group 52" transform="translate(0 449.308)">
        <text id="_1200" data-name="1200" transform="translate(17 14)" font-size="15" font-family="ArialMT, Arial"><tspan x="-16.685" y="0">1200</tspan></text>
      </g>
    </g>
    <g id="Group_54" data-name="Group 54" transform="translate(411.732 18.773)">
      <path id="Path_86" data-name="Path 86" d="M379.1,456.788V16.7h.011" transform="translate(-379.1 -16.7)" fill="none" stroke="gray" stroke-width="1" stroke-dasharray="2 4"/>
    </g>
    <g id="Group_56" data-name="Group 56" transform="translate(392.207 18.773)">
      <path id="Path_87" data-name="Path 87" d="M379.1,456.788v-9.763m0-430.325v9.763h.011" transform="translate(-359.574 -16.7)" fill="none" stroke="#000" stroke-width="1"/>
      <g id="Group_55" data-name="Group 55" transform="translate(0 449.308)">
        <text id="_1400" data-name="1400" transform="translate(17 14)" font-size="15" font-family="ArialMT, Arial"><tspan x="-16.685" y="0">1400</tspan></text>
      </g>
    </g>
    <g id="Group_57" data-name="Group 57" transform="translate(458.051 18.773)">
      <path id="Path_88" data-name="Path 88" d="M421.8,456.788V65.514m0-39.051V16.7h.011" transform="translate(-421.8 -16.7)" fill="none" stroke="gray" stroke-width="1" stroke-dasharray="2 4"/>
    </g>
    <g id="Group_59" data-name="Group 59" transform="translate(438.526 18.773)">
      <path id="Path_89" data-name="Path 89" d="M421.8,456.788v-9.763m0-430.325v9.763h.011" transform="translate(-402.274 -16.7)" fill="none" stroke="#000" stroke-width="1"/>
      <g id="Group_58" data-name="Group 58" transform="translate(0 449.308)">
        <text id="_1600" data-name="1600" transform="translate(17 14)" font-size="15" font-family="ArialMT, Arial"><tspan x="-16.685" y="0">1600</tspan></text>
      </g>
    </g>
    <g id="Group_60" data-name="Group 60" transform="translate(504.371 18.773)">
      <path id="Path_90" data-name="Path 90" d="M464.5,456.788V65.514m0-39.051V16.7h.011" transform="translate(-464.5 -16.7)" fill="none" stroke="gray" stroke-width="1" stroke-dasharray="2 4"/>
    </g>
    <g id="Group_62" data-name="Group 62" transform="translate(484.845 18.773)">
      <path id="Path_91" data-name="Path 91" d="M464.5,456.788v-9.763m0-430.325v9.763h.011" transform="translate(-444.974 -16.7)" fill="none" stroke="#000" stroke-width="1"/>
      <g id="Group_61" data-name="Group 61" transform="translate(0 449.308)">
        <text id="_1800" data-name="1800" transform="translate(17 14)" font-size="15" font-family="ArialMT, Arial"><tspan x="-16.685" y="0">1800</tspan></text>
      </g>
    </g>
    <g id="Group_63" data-name="Group 63" transform="translate(550.69 18.773)">
      <path id="Path_92" data-name="Path 92" d="M507.2,456.788V16.7h.011" transform="translate(-507.2 -16.7)" fill="none" stroke="gray" stroke-width="1" stroke-dasharray="2 4"/>
    </g>
    <g id="Group_75" data-name="Group 75" transform="translate(4.404 8.468)">
      <path id="Path_93" data-name="Path 93" d="M507.2,456.788v-9.763m0-430.325v9.763h.011" transform="translate(39.086 -6.395)" fill="none" stroke="#000" stroke-width="1"/>
      <g id="Group_64" data-name="Group 64" transform="translate(526.76 459.614)">
        <text id="_2000-2" data-name="2000" transform="translate(17 14)" font-size="15" font-family="ArialMT, Arial"><tspan x="-16.685" y="0">2000</tspan></text>
      </g>
      <path id="Path_94" data-name="Path 94" d="M507.963,422.4h-9.752" transform="translate(38.323 27.993)" fill="none" stroke="#000" stroke-width="1"/>
      <g id="Group_65" data-name="Group 65" transform="translate(555.289 440.088)">
        <text id="_0-3" data-name="0" transform="translate(0 14)" font-size="15" font-family="ArialMT, Arial"><tspan x="0" y="0">0</tspan></text>
      </g>
      <path id="Path_95" data-name="Path 95" d="M507.963,354.8h-9.752" transform="translate(38.323 22.263)" fill="none" stroke="#000" stroke-width="1"/>
      <g id="Group_66" data-name="Group 66" transform="translate(555.289 366.758)">
        <text id="_100" data-name="100" transform="translate(0 14)" font-size="15" font-family="ArialMT, Arial"><tspan x="0" y="0">100</tspan></text>
      </g>
      <path id="Path_96" data-name="Path 96" d="M507.963,287.2h-9.752" transform="translate(38.323 16.533)" fill="none" stroke="#000" stroke-width="1"/>
      <g id="Group_67" data-name="Group 67" transform="translate(555.289 293.428)">
        <text id="_200-2" data-name="200" transform="translate(0 14)" font-size="15" font-family="ArialMT, Arial"><tspan x="0" y="0">200</tspan></text>
      </g>
      <path id="Path_97" data-name="Path 97" d="M507.963,219.5h-9.752" transform="translate(38.323 10.795)" fill="none" stroke="#000" stroke-width="1"/>
      <g id="Group_68" data-name="Group 68" transform="translate(555.289 219.99)">
        <text id="_300" data-name="300" transform="translate(0 14)" font-size="15" font-family="ArialMT, Arial"><tspan x="0" y="0">300</tspan></text>
      </g>
      <path id="Path_98" data-name="Path 98" d="M507.963,151.9h-9.752" transform="translate(38.323 5.065)" fill="none" stroke="#000" stroke-width="1"/>
      <g id="Group_69" data-name="Group 69" transform="translate(555.289 146.66)">
        <text id="_400-2" data-name="400" transform="translate(0 14)" font-size="15" font-family="ArialMT, Arial"><tspan x="0" y="0">400</tspan></text>
      </g>
      <path id="Path_99" data-name="Path 99" d="M507.963,84.3h-9.752" transform="translate(38.323 -0.665)" fill="none" stroke="#000" stroke-width="1"/>
      <g id="Group_70" data-name="Group 70" transform="translate(555.289 73.33)">
        <text id="_500-2" data-name="500" transform="translate(0 14)" font-size="15" font-family="ArialMT, Arial"><tspan x="0" y="0">500</tspan></text>
      </g>
      <path id="Path_100" data-name="Path 100" d="M507.963,16.7h-9.752" transform="translate(38.323 -6.395)" fill="none" stroke="#000" stroke-width="1"/>
      <g id="Group_71" data-name="Group 71" transform="translate(555.289)">
        <text id="_600-2" data-name="600" transform="translate(0 14)" font-size="15" font-family="ArialMT, Arial"><tspan x="0" y="0">600</tspan></text>
      </g>
      <path id="Path_101" data-name="Path 101" d="M80.2,16.7V456.788H543.393V16.7Zm0,0h.011" transform="translate(2.893 -6.395)" fill="none" stroke="#000" stroke-width="1"/>
      <g id="Group_72" data-name="Group 72" transform="translate(0 282.472) rotate(-90)">
        <text id="Requests_sec" data-name="Requests/sec" transform="translate(48 14)" font-size="16" font-family="ArialMT, Arial"><tspan x="-48.469" y="0">Requests/sec</tspan></text>
      </g>
      <g id="Group_73" data-name="Group 73" transform="translate(599.656 303.082) rotate(-90)">
        <text id="Latency_99_ms_" data-name="Latency (99%, ms)" transform="translate(67 14)" font-size="16" font-family="ArialMT, Arial"><tspan x="-66.691" y="0">Latency (99%, ms)</tspan></text>
      </g>
      <g id="Group_74" data-name="Group 74" transform="translate(266.96 488.902)">
        <text id="Connections" transform="translate(44 14)" font-size="16" font-family="ArialMT, Arial"><tspan x="-44.473" y="0">Connections</tspan></text>
      </g>
    </g>
    <g id="gnuplot_plot_1" transform="translate(89.775 27.993)">
      <g id="Group_77" data-name="Group 77">
        <g id="Group_76" data-name="Group 76" transform="translate(342.568)">
          <text id="Req_s" data-name="Req/s" transform="translate(42 14)" font-size="16" font-family="ArialMT, Arial"><tspan x="-41.797" y="0">Req/s</tspan></text>
        </g>
        <path id="Path_102" data-name="Path 102" d="M479.431,34.7h45.777M82.3,411.655l.542-7.376.434-7.268.542-7.051.434-6.943.542-6.725.651-6.726.542-6.4.651-6.4.651-6.183.759-5.966.651-5.966.868-5.749.868-5.641.868-5.532.976-5.315,1.085-5.207,1.085-5.1,1.085-4.99,1.3-4.881,1.3-4.664,1.3-4.664,1.519-4.448,1.519-4.339L104,273.89l1.736-4.231,1.736-4.014,1.844-3.905,1.953-3.8,2.061-3.688,2.061-3.58,2.17-3.471,2.278-3.471,2.386-3.254,2.495-3.254,2.6-3.146,2.712-2.929,2.712-3.037,2.929-2.82,2.929-2.82,3.037-2.6,3.146-2.712,3.363-2.495,3.363-2.495,3.471-2.386,3.58-2.387,3.688-2.278,3.8-2.17,3.905-2.17,4.014-2.17,4.122-2.061,4.231-2.061,4.339-1.953,4.448-1.953,4.556-1.953,4.664-1.844,4.881-1.844,4.881-1.844,4.99-1.844,5.207-1.844,5.207-1.736,5.424-1.844,5.532-1.736,5.641-1.844,5.749-1.844,5.858-1.844,5.966-1.844,6.183-1.844,6.292-1.953,6.4-1.953,6.509-1.953,6.617-2.061,6.834-2.17,6.942-2.17,7.051-2.17,7.268-2.278,7.268-2.495,7.593-2.386,7.593-2.6,7.81-2.712,8.027-2.82,8.136-2.929,8.244-3.037,8.461-3.146,8.57-3.254,8.787-3.471,9-3.688,9.112-3.8,9.329-4.014,9.546-4.122,9.654-4.339L456.76,94.8l10.088-4.773,10.2-4.99,10.522-5.315,10.739-5.424,10.848-5.749,11.173-5.966,11.281-6.292,11.607-6.617h.011" transform="translate(-82.3 -24.395)" fill="none" stroke="red" stroke-width="1"/>
      </g>
    </g>
    <g id="gnuplot_plot_2" transform="translate(89.775 47.519)">
      <g id="Group_79" data-name="Group 79">
        <g id="Group_78" data-name="Group 78" transform="translate(327.381)">
          <text id="Latency" transform="translate(56 14)" font-size="16" font-family="ArialMT, Arial"><tspan x="-56.039" y="0">Latency</tspan></text>
        </g>
        <path id="Path_103" data-name="Path 103" d="M479.431,52.7h45.777M82.3,424.665l.542-.217.434-.217.542-.325.434-.325.542-.325.651-.434.542-.542.651-.651.651-.651.759-.759.651-.868.868-.976.868-.976L91.3,416.2l.976-1.3,1.085-1.41,1.085-1.519,1.085-1.627,1.3-1.844,1.3-1.844,1.3-2.061,1.519-2.278,1.519-2.278L104,397.546l1.736-2.6,1.736-2.712,1.844-2.929,1.953-3.037,2.061-3.254,2.061-3.363,2.17-3.471,2.278-3.688,2.386-3.688,2.495-4.014,2.6-4.014,2.712-4.231,2.712-4.339,2.929-4.556,2.929-4.664,3.037-4.773,3.146-4.881,3.363-4.99,3.363-5.207,3.471-5.315,3.58-5.315,3.688-5.532,3.8-5.641,3.905-5.641,4.014-5.858,4.122-5.858,4.231-6.075,4.339-6.075,4.448-6.075,4.556-6.183,4.664-6.292,4.881-6.4,4.881-6.292,4.99-6.4,5.207-6.509,5.207-6.4,5.424-6.509,5.532-6.4,5.641-6.509,5.749-6.4,5.858-6.4,5.966-6.4,6.183-6.4,6.292-6.292,6.4-6.183,6.509-6.183,6.617-5.966,6.834-5.966,6.942-5.858,7.051-5.749,7.268-5.532,7.268-5.424,7.593-5.315,7.593-4.99,7.81-4.881,8.027-4.773,8.136-4.448,8.244-4.231,8.461-3.905,8.57-3.8,8.787-3.363,9-3.146,9.112-2.929,9.329-2.495,9.546-2.17,9.654-1.736,9.871-1.41,10.088-1.085,10.2-.651,10.522-.108,10.739.217,10.848.651,11.173,1.3,11.281,1.627,11.607,2.278h.011" transform="translate(-82.3 -42.395)" fill="none" stroke="green" stroke-width="1"/>
      </g>
    </g>
    <g id="Group_80" data-name="Group 80" transform="translate(87.497 18.773)">
      <path id="Path_104" data-name="Path 104" d="M80.2,16.7V456.788H543.393V16.7Zm0,0h.011" transform="translate(-80.2 -16.7)" fill="none" stroke="#000" stroke-width="1"/>
    </g>
  </g>
</svg>
