<svg id="pie-chart" xmlns="http://www.w3.org/2000/svg" width="517.694" height="517.016" viewBox="0 0 517.694 517.016">
  <path id="Path_105" data-name="Path 105" d="M31,240.355H271.317C262.534,111.637,159.719,8.821,31,.038Z" transform="translate(245.699 -0.038)" fill="#f0785a"/>
  <path id="Path_106" data-name="Path 106" d="M190.3,188.529A257.871,257.871,0,0,0,258.26,30.962H32.733Z" transform="translate(259.434 245.058)" fill="#f0c419"/>
  <path id="Path_107" data-name="Path 107" d="M241,250.816V.038C106.377,9.223,0,121.259,0,258.207A257.806,257.806,0,0,0,63.676,428.136Z" transform="translate(0 -0.038)" fill="#556080"/>
  <path id="Path_108" data-name="Path 108" d="M174.66,32.376l-164.7,164.7a257.806,257.806,0,0,0,169.929,63.676,257.514,257.514,0,0,0,164.243-58.9Z" transform="translate(78.956 256.265)" fill="#71c285"/>
</svg>
