<svg width="40" height="40" viewBox="0 0 40 40" fill="none" xmlns="http://www.w3.org/2000/svg">
<mask id="mask0_231_23" style="mask-type:luminance" maskUnits="userSpaceOnUse" x="3" y="3" width="34" height="34">
<path d="M26.6667 5H18.3333V35H26.6667V5ZM35 5H26.6667V35H35V5ZM8.33333 5L15 5.83333L12.0833 35L5 34.1667L8.33333 5Z" fill="#555555"/>
<path d="M26.6667 5H18.3333V35H26.6667M26.6667 5V35M26.6667 5H35V35H26.6667M8.33333 5L15 5.83333L12.0833 35L5 34.1667L8.33333 5Z" stroke="white" stroke-width="2.66667" stroke-linejoin="round"/>
<path d="M30.8333 15V12.5M22.5 15V12.5" stroke="white" stroke-width="2.66667" stroke-linecap="round" stroke-linejoin="round"/>
</mask>
<g mask="url(#mask0_231_23)">
<path d="M0 0H40V40H0V0Z" fill="#699BF7"/>
</g>
</svg>
