<svg width="100" height="98" viewBox="0 0 100 98" fill="none" xmlns="http://www.w3.org/2000/svg">
<path d="M89.0625 48C89.0667 41.4972 87.4474 35.0962 84.3514 29.3776C81.2555 23.659 76.7809 18.8039 71.3335 15.2524C65.8861 11.701 59.6382 9.56567 53.1567 9.04018C46.6751 8.51468 40.1649 9.61562 34.2165 12.2431C28.2682 14.8707 23.0699 18.9416 19.0931 24.0868C15.1164 29.2319 12.4871 35.2885 11.4437 41.707C10.4002 48.1256 10.9757 54.7031 13.1179 60.843C15.2601 66.9829 18.9012 72.4908 23.7109 76.8672C23.8097 76.9904 23.9286 77.096 24.0625 77.1797C31.2097 83.5465 40.4477 87.0645 50.0195 87.0645C59.5913 87.0645 68.8293 83.5465 75.9766 77.1797L76.2891 76.8672C80.3171 73.2152 83.5349 68.7594 85.735 63.7873C87.9351 58.8152 89.0687 53.4371 89.0625 48V48ZM14.0625 48C14.062 42.0934 15.5175 36.2776 18.3 31.0675C21.0826 25.8573 25.1064 21.4133 30.0156 18.1286C34.9248 14.844 40.5679 12.8201 46.4456 12.2359C52.3233 11.6517 58.2543 12.5252 63.714 14.7792C69.1737 17.0333 73.9936 20.5983 77.7473 25.1588C81.501 29.7193 84.0727 35.1347 85.235 40.9259C86.3972 46.7171 86.114 52.7055 84.4106 58.3612C82.7072 64.0169 79.636 69.1655 75.4687 73.3516C71.5897 66.8531 65.3696 62.0867 58.0859 60.0313C61.4685 58.2279 64.1512 55.3455 65.7074 51.8423C67.2636 48.3391 67.6041 44.4162 66.6746 40.6973C65.7452 36.9784 63.5992 33.6769 60.5779 31.3177C57.5566 28.9585 53.8333 27.6771 50 27.6771C46.1667 27.6771 42.4434 28.9585 39.4221 31.3177C36.4008 33.6769 34.2548 36.9784 33.3254 40.6973C32.3959 44.4162 32.7364 48.3391 34.2926 51.8423C35.8488 55.3455 38.5315 58.2279 41.9141 60.0313C34.6304 62.0867 28.4103 66.8531 24.5312 73.3516C17.8309 66.615 14.0675 57.5014 14.0625 48V48ZM50 58.9375C47.2187 58.9375 44.4999 58.1128 42.1873 56.5676C39.8747 55.0223 38.0723 52.8261 37.0079 50.2565C35.9436 47.6869 35.6651 44.8594 36.2077 42.1316C36.7503 39.4037 38.0896 36.898 40.0563 34.9313C42.023 32.9646 44.5287 31.6253 47.2565 31.0827C49.9844 30.5401 52.8119 30.8186 55.3815 31.883C57.9511 32.9473 60.1473 34.7497 61.6925 37.0623C63.2377 39.3749 64.0625 42.0937 64.0625 44.875C64.0625 48.6046 62.5809 52.1815 59.9437 54.8187C57.3065 57.4559 53.7296 58.9375 50 58.9375V58.9375ZM26.9141 75.5C29.2341 71.4232 32.5923 68.0335 36.6473 65.6756C40.7022 63.3176 45.3093 62.0755 50 62.0755C54.6907 62.0755 59.2977 63.3176 63.3527 65.6756C67.4077 68.0335 70.7659 71.4232 73.0859 75.5C66.6258 80.9453 58.4489 83.9317 50 83.9317C41.5511 83.9317 33.3742 80.9453 26.9141 75.5V75.5Z" fill="white"/>
</svg>
